<mxfile host="65bd71144e">
    <diagram name="Page-1" id="12k8LJTqPWz9uWwirLdU">
        <mxGraphModel dx="878" dy="273" grid="1" gridSize="10" guides="1" tooltips="1" connect="1" arrows="1" fold="1" page="1" pageScale="1" pageWidth="827" pageHeight="1169" math="0" shadow="0">
            <root>
                <mxCell id="0"/>
                <mxCell id="1" parent="0"/>
                <mxCell id="b7rt-HRciYOIkptiewg2-5" value="" style="edgeStyle=orthogonalEdgeStyle;rounded=0;orthogonalLoop=1;jettySize=auto;html=1;" parent="1" source="b7rt-HRciYOIkptiewg2-1" target="b7rt-HRciYOIkptiewg2-4" edge="1">
                    <mxGeometry relative="1" as="geometry"/>
                </mxCell>
                <mxCell id="b7rt-HRciYOIkptiewg2-1" value="" style="sketch=0;points=[[0,0,0],[0.25,0,0],[0.5,0,0],[0.75,0,0],[1,0,0],[0,1,0],[0.25,1,0],[0.5,1,0],[0.75,1,0],[1,1,0],[0,0.25,0],[0,0.5,0],[0,0.75,0],[1,0.25,0],[1,0.5,0],[1,0.75,0]];outlineConnect=0;fontColor=#232F3E;gradientColor=#945DF2;gradientDirection=north;fillColor=#5A30B5;strokeColor=#ffffff;dashed=0;verticalLabelPosition=bottom;verticalAlign=top;align=center;html=1;fontSize=12;fontStyle=0;aspect=fixed;shape=mxgraph.aws4.resourceIcon;resIcon=mxgraph.aws4.api_gateway;" parent="1" vertex="1">
                    <mxGeometry x="140" y="181" width="78" height="78" as="geometry"/>
                </mxCell>
                <mxCell id="b7rt-HRciYOIkptiewg2-3" style="edgeStyle=orthogonalEdgeStyle;rounded=0;orthogonalLoop=1;jettySize=auto;html=1;entryX=0;entryY=0.5;entryDx=0;entryDy=0;entryPerimeter=0;" parent="1" source="b7rt-HRciYOIkptiewg2-2" target="b7rt-HRciYOIkptiewg2-1" edge="1">
                    <mxGeometry relative="1" as="geometry"/>
                </mxCell>
                <mxCell id="b7rt-HRciYOIkptiewg2-2" value="Actor" style="shape=umlActor;verticalLabelPosition=bottom;verticalAlign=top;html=1;outlineConnect=0;" parent="1" vertex="1">
                    <mxGeometry x="20" y="190" width="30" height="60" as="geometry"/>
                </mxCell>
                <mxCell id="b7rt-HRciYOIkptiewg2-7" value="" style="edgeStyle=orthogonalEdgeStyle;rounded=0;orthogonalLoop=1;jettySize=auto;html=1;" parent="1" source="b7rt-HRciYOIkptiewg2-4" target="b7rt-HRciYOIkptiewg2-6" edge="1">
                    <mxGeometry relative="1" as="geometry"/>
                </mxCell>
                <mxCell id="b7rt-HRciYOIkptiewg2-4" value="" style="outlineConnect=0;dashed=0;verticalLabelPosition=bottom;verticalAlign=top;align=center;html=1;shape=mxgraph.aws3.lambda_function;fillColor=#F58534;gradientColor=none;" parent="1" vertex="1">
                    <mxGeometry x="270" y="184" width="69" height="72" as="geometry"/>
                </mxCell>
                <mxCell id="b7rt-HRciYOIkptiewg2-9" value="" style="edgeStyle=orthogonalEdgeStyle;rounded=0;orthogonalLoop=1;jettySize=auto;html=1;" parent="1" source="b7rt-HRciYOIkptiewg2-6" edge="1">
                    <mxGeometry relative="1" as="geometry">
                        <mxPoint x="540" y="220" as="targetPoint"/>
                    </mxGeometry>
                </mxCell>
                <mxCell id="b7rt-HRciYOIkptiewg2-12" value="" style="edgeStyle=orthogonalEdgeStyle;rounded=0;orthogonalLoop=1;jettySize=auto;html=1;" parent="1" source="b7rt-HRciYOIkptiewg2-6" target="b7rt-HRciYOIkptiewg2-11" edge="1">
                    <mxGeometry relative="1" as="geometry"/>
                </mxCell>
                <mxCell id="b7rt-HRciYOIkptiewg2-6" value="" style="sketch=0;points=[[0,0,0],[0.25,0,0],[0.5,0,0],[0.75,0,0],[1,0,0],[0,1,0],[0.25,1,0],[0.5,1,0],[0.75,1,0],[1,1,0],[0,0.25,0],[0,0.5,0],[0,0.75,0],[1,0.25,0],[1,0.5,0],[1,0.75,0]];outlineConnect=0;fontColor=#232F3E;gradientColor=#4D72F3;gradientDirection=north;fillColor=#3334B9;strokeColor=#ffffff;dashed=0;verticalLabelPosition=bottom;verticalAlign=top;align=center;html=1;fontSize=12;fontStyle=0;aspect=fixed;shape=mxgraph.aws4.resourceIcon;resIcon=mxgraph.aws4.dynamodb;" parent="1" vertex="1">
                    <mxGeometry x="390" y="181" width="78" height="78" as="geometry"/>
                </mxCell>
                <mxCell id="b7rt-HRciYOIkptiewg2-14" value="" style="edgeStyle=orthogonalEdgeStyle;rounded=0;orthogonalLoop=1;jettySize=auto;html=1;" parent="1" source="b7rt-HRciYOIkptiewg2-10" target="b7rt-HRciYOIkptiewg2-13" edge="1">
                    <mxGeometry relative="1" as="geometry"/>
                </mxCell>
                <mxCell id="b7rt-HRciYOIkptiewg2-10" value="" style="outlineConnect=0;dashed=0;verticalLabelPosition=bottom;verticalAlign=top;align=center;html=1;shape=mxgraph.aws3.lambda_function;fillColor=#F58534;gradientColor=none;" parent="1" vertex="1">
                    <mxGeometry x="540" y="184" width="69" height="72" as="geometry"/>
                </mxCell>
                <mxCell id="b7rt-HRciYOIkptiewg2-11" value="" style="sketch=0;points=[[0,0,0],[0.25,0,0],[0.5,0,0],[0.75,0,0],[1,0,0],[0,1,0],[0.25,1,0],[0.5,1,0],[0.75,1,0],[1,1,0],[0,0.25,0],[0,0.5,0],[0,0.75,0],[1,0.25,0],[1,0.5,0],[1,0.75,0]];outlineConnect=0;fontColor=#232F3E;gradientColor=#FF4F8B;gradientDirection=north;fillColor=#BC1356;strokeColor=#ffffff;dashed=0;verticalLabelPosition=bottom;verticalAlign=top;align=center;html=1;fontSize=12;fontStyle=0;aspect=fixed;shape=mxgraph.aws4.resourceIcon;resIcon=mxgraph.aws4.eventbridge;" parent="1" vertex="1">
                    <mxGeometry x="390" y="340" width="78" height="78" as="geometry"/>
                </mxCell>
                <mxCell id="b7rt-HRciYOIkptiewg2-17" value="" style="edgeStyle=orthogonalEdgeStyle;rounded=0;orthogonalLoop=1;jettySize=auto;html=1;" parent="1" source="b7rt-HRciYOIkptiewg2-13" target="b7rt-HRciYOIkptiewg2-16" edge="1">
                    <mxGeometry relative="1" as="geometry"/>
                </mxCell>
                <mxCell id="b7rt-HRciYOIkptiewg2-18" value="" style="edgeStyle=orthogonalEdgeStyle;rounded=0;orthogonalLoop=1;jettySize=auto;html=1;" parent="1" source="b7rt-HRciYOIkptiewg2-13" target="b7rt-HRciYOIkptiewg2-16" edge="1">
                    <mxGeometry relative="1" as="geometry"/>
                </mxCell>
                <mxCell id="b7rt-HRciYOIkptiewg2-20" style="edgeStyle=orthogonalEdgeStyle;rounded=0;orthogonalLoop=1;jettySize=auto;html=1;entryX=-0.027;entryY=0.752;entryDx=0;entryDy=0;entryPerimeter=0;" parent="1" source="b7rt-HRciYOIkptiewg2-13" target="b7rt-HRciYOIkptiewg2-15" edge="1">
                    <mxGeometry relative="1" as="geometry"/>
                </mxCell>
                <mxCell id="b7rt-HRciYOIkptiewg2-13" value="" style="sketch=0;points=[[0,0,0],[0.25,0,0],[0.5,0,0],[0.75,0,0],[1,0,0],[0,1,0],[0.25,1,0],[0.5,1,0],[0.75,1,0],[1,1,0],[0,0.25,0],[0,0.5,0],[0,0.75,0],[1,0.25,0],[1,0.5,0],[1,0.75,0]];outlineConnect=0;fontColor=#232F3E;gradientColor=#FF4F8B;gradientDirection=north;fillColor=#BC1356;strokeColor=#ffffff;dashed=0;verticalLabelPosition=bottom;verticalAlign=top;align=center;html=1;fontSize=12;fontStyle=0;aspect=fixed;shape=mxgraph.aws4.resourceIcon;resIcon=mxgraph.aws4.sns;" parent="1" vertex="1">
                    <mxGeometry x="660" y="181" width="78" height="78" as="geometry"/>
                </mxCell>
                <mxCell id="b7rt-HRciYOIkptiewg2-15" value="" style="html=1;verticalLabelPosition=bottom;align=center;labelBackgroundColor=#ffffff;verticalAlign=top;strokeWidth=2;strokeColor=#0080F0;shadow=0;dashed=0;shape=mxgraph.ios7.icons.mail;" parent="1" vertex="1">
                    <mxGeometry x="770" y="184" width="30" height="16.5" as="geometry"/>
                </mxCell>
                <mxCell id="b7rt-HRciYOIkptiewg2-16" value="" style="html=1;verticalLabelPosition=bottom;align=center;labelBackgroundColor=#ffffff;verticalAlign=top;strokeWidth=2;strokeColor=#0080F0;shadow=0;dashed=0;shape=mxgraph.ios7.icons.mail;" parent="1" vertex="1">
                    <mxGeometry x="770" y="242.5" width="30" height="16.5" as="geometry"/>
                </mxCell>
                <mxCell id="b7rt-HRciYOIkptiewg2-21" value="POST /submit" style="rounded=0;whiteSpace=wrap;html=1;" parent="1" vertex="1">
                    <mxGeometry x="50" y="222.5" width="80" height="20" as="geometry"/>
                </mxCell>
                <mxCell id="b7rt-HRciYOIkptiewg2-22" value="&lt;b&gt;SubmitFeedback&lt;/b&gt;" style="rounded=0;whiteSpace=wrap;html=1;border=none;strokeColor=#FFFFFF;" parent="1" vertex="1">
                    <mxGeometry x="252.25" y="259" width="104.5" height="20" as="geometry"/>
                </mxCell>
                <mxCell id="b7rt-HRciYOIkptiewg2-23" value="&lt;b&gt;FeedbackTable&lt;/b&gt;" style="rounded=0;whiteSpace=wrap;html=1;border=none;strokeColor=#FFFFFF;" parent="1" vertex="1">
                    <mxGeometry x="380" y="150" width="104.5" height="20" as="geometry"/>
                </mxCell>
                <mxCell id="b7rt-HRciYOIkptiewg2-24" value="&lt;b&gt;FeedbackNotifications&lt;/b&gt;" style="rounded=0;whiteSpace=wrap;html=1;border=none;strokeColor=#FFFFFF;" parent="1" vertex="1">
                    <mxGeometry x="643.5" y="270" width="126.5" height="20" as="geometry"/>
                </mxCell>
                <mxCell id="b7rt-HRciYOIkptiewg2-26" value="&lt;b&gt;NotifyAdmins&lt;/b&gt;" style="rounded=0;whiteSpace=wrap;html=1;border=none;strokeColor=#FFFFFF;" parent="1" vertex="1">
                    <mxGeometry x="522.25" y="259" width="104.5" height="20" as="geometry"/>
                </mxCell>
                <mxCell id="b7rt-HRciYOIkptiewg2-27" value="&lt;b&gt;FeedbackEvent&lt;/b&gt;" style="rounded=0;whiteSpace=wrap;html=1;border=none;strokeColor=#FFFFFF;" parent="1" vertex="1">
                    <mxGeometry x="376.75" y="430" width="104.5" height="20" as="geometry"/>
                </mxCell>
                <mxCell id="2" value="&lt;b&gt;FeedbackApi&lt;/b&gt;" style="rounded=0;whiteSpace=wrap;html=1;border=none;strokeColor=#FFFFFF;" parent="1" vertex="1">
                    <mxGeometry x="126.75" y="269" width="104.5" height="20" as="geometry"/>
                </mxCell>
            </root>
        </mxGraphModel>
    </diagram>
</mxfile>